<?xml version="1.0" encoding="utf-8"?>
<!-- Generator: Adobe Illustrator 21.1.0, SVG Export Plug-In . SVG Version: 6.00 Build 0)  -->
<svg version="1.1" id="Artwork" xmlns="http://www.w3.org/2000/svg" xmlns:xlink="http://www.w3.org/1999/xlink" x="0px" y="0px"
	 width="25.16376px" height="25.16376px" viewBox="0 0 25.16376 25.16376" enable-background="new 0 0 25.16376 25.16376"
	 xml:space="preserve">
<g>
	<path d="M25.16211,6.96991c-0.00159-0.25317-0.00446-0.50629-0.01129-0.7594c-0.01495-0.55127-0.04742-1.10736-0.14532-1.65253
		c-0.09949-0.55359-0.26184-1.06879-0.51788-1.57172c-0.25153-0.49408-0.58008-0.94611-0.97205-1.33807
		c-0.39203-0.39203-0.84412-0.72058-1.33826-0.97211c-0.50269-0.25586-1.01764-0.41821-1.57086-0.51764
		c-0.54541-0.09808-1.10175-0.13055-1.6532-0.14545c-0.25311-0.00684-0.50623-0.00977-0.7594-0.01135
		C17.93323,0.00006,17.67255,0,17.41187,0c-0.03986,0-0.07971,0-0.11963,0H7.87158C7.83167,0,7.79181,0,7.75189,0
		c-0.26068,0-0.5213,0.00006-0.78198,0.00165C6.71674,0.00323,6.46362,0.00616,6.21057,0.013
		c-0.55151,0.01489-1.10785,0.04736-1.6532,0.14545C4.00409,0.25787,3.48914,0.42023,2.98645,0.67609
		c-0.49408,0.25153-0.94617,0.58008-1.3382,0.97211C1.25629,2.04016,0.92774,2.49219,0.67621,2.98627
		C0.42017,3.4892,0.25775,4.00439,0.15833,4.55798C0.06037,5.10315,0.02789,5.65924,0.013,6.21051
		c-0.00684,0.25311-0.00977,0.50623-0.01129,0.7594C-0.00012,7.27045,0,7.57098,0,7.87152v9.42065
		c0,0.3006-0.00012,0.60114,0.00171,0.90167c0.00153,0.25317,0.00446,0.50629,0.01129,0.75934
		c0.01489,0.55133,0.04736,1.10742,0.14532,1.65259c0.09943,0.55359,0.26184,1.06879,0.51788,1.57172
		c0.25153,0.49402,0.58008,0.94604,0.97205,1.33807c0.39203,0.39197,0.84412,0.72058,1.3382,0.97211
		c0.50269,0.25586,1.01764,0.41821,1.57092,0.51764c0.54535,0.09802,1.10168,0.13055,1.6532,0.14545
		c0.25305,0.00684,0.50616,0.00977,0.75934,0.01129c0.263,0.00159,0.52594,0.00171,0.78894,0.00171c0.0376,0,0.07513,0,0.11273,0
		h9.42065c0.0376,0,0.07513,0,0.11273,0c0.26294,0,0.52594-0.00012,0.78888-0.00171c0.25317-0.00153,0.50629-0.00446,0.7594-0.01129
		c0.55145-0.01489,1.10779-0.04742,1.6532-0.14545c0.55322-0.09943,1.06818-0.26178,1.57086-0.51764
		c0.49414-0.25153,0.94623-0.58014,1.33826-0.97211c0.39197-0.39203,0.72052-0.84406,0.97205-1.33807
		c0.25604-0.50293,0.4184-1.01813,0.51788-1.57172c0.0979-0.54517,0.13037-1.10126,0.14532-1.65259
		c0.00684-0.25305,0.0097-0.50616,0.01129-0.75934c0.00183-0.30054,0.00165-0.60107,0.00165-0.90167V7.87152
		C25.16376,7.57098,25.16394,7.27045,25.16211,6.96991z M11.62927,20.44562H6.85791H6.20557c-0.05682,0-0.11359,0-0.17035-0.00031
		c-0.04785-0.00031-0.0957-0.00085-0.14349-0.0022c-0.10419-0.00281-0.20929-0.00891-0.31226-0.02747
		c-0.10461-0.0188-0.20203-0.0495-0.297-0.0979c-0.09338-0.04755-0.17883-0.10962-0.25287-0.18372
		c-0.0741-0.0741-0.13611-0.15961-0.18372-0.25299c-0.04834-0.09503-0.07898-0.19238-0.09778-0.29694
		c-0.01855-0.10315-0.02466-0.20831-0.02753-0.3125c-0.00128-0.04785-0.00183-0.09576-0.00208-0.14355
		c-0.00037-0.05682-0.00037-0.11365-0.00037-0.17047v-0.65253v-4.77057c0-0.08203,0.06598-0.13104,0.13239-0.13104
		c0.04462,0,0.08942,0.02216,0.11456,0.07117c1.49524,2.91486,3.8092,5.22882,6.72412,6.72406
		C11.81122,20.26123,11.76642,20.44562,11.62927,20.44562z M20.44562,18.98151c0,0.04828,0,0.09656-0.00031,0.14478
		c-0.00031,0.04797-0.00085,0.09583-0.00214,0.14374c-0.00281,0.10437-0.00897,0.20966-0.02753,0.31281
		c-0.01886,0.1048-0.04956,0.20233-0.09808,0.29755c-0.04761,0.09344-0.1098,0.17902-0.18408,0.25323
		c-0.07416,0.07422-0.15979,0.13635-0.25336,0.18402c-0.09521,0.0484-0.19269,0.0791-0.29749,0.09796
		c-0.10327,0.01855-0.20856,0.02472-0.31305,0.02753c-0.04791,0.00128-0.09583,0.00189-0.1438,0.00214
		c-0.05688,0.00037-0.11383,0.00037-0.17072,0.00037H16.9914c-0.39996,0-0.60468-0.07422-0.90558-0.37512L5.09326,9.078
		C4.79608,8.78076,4.71814,8.57324,4.71814,8.17236V6.20807V6.18146c0-0.04797,0-0.09601,0.00037-0.14404
		C4.71875,5.9895,4.7193,5.94165,4.72058,5.89374c0.00287-0.10437,0.00903-0.20959,0.02759-0.31287
		c0.0188-0.10474,0.04956-0.20227,0.09808-0.29749c0.04755-0.09351,0.1098-0.17902,0.18402-0.25323s0.15985-0.13641,0.25342-0.18402
		c0.09515-0.04846,0.19269-0.0791,0.29742-0.09796c0.10327-0.01855,0.20862-0.02472,0.31305-0.02753
		c0.04797-0.00128,0.09589-0.00189,0.1438-0.00214C6.09485,4.71814,6.1518,4.71814,6.20868,4.71814h1.96368
		c0.39996,0,0.60468,0.07422,0.90564,0.37512L20.0705,16.08582c0.29724,0.29718,0.37512,0.5047,0.37512,0.90564V18.98151z
		 M20.44562,6.8587v4.77051c0,0.13721-0.18433,0.18201-0.24695,0.05994c-1.49524-2.91486-3.8092-5.22882-6.72406-6.72406
		c-0.12201-0.06262-0.07727-0.24695,0.05994-0.24695h4.77136h0.65234c0.05676,0,0.11353,0,0.17035,0.00037
		c0.04785,0.00024,0.09564,0.00085,0.14349,0.00208c0.10413,0.00287,0.20923,0.00897,0.31226,0.02753
		c0.10461,0.0188,0.20197,0.0495,0.297,0.0979c0.09338,0.04755,0.17871,0.10962,0.25281,0.18372s0.13617,0.15955,0.18372,0.25299
		c0.04834,0.09503,0.07904,0.19232,0.09784,0.29694c0.01855,0.10309,0.02466,0.20825,0.02747,0.3125
		c0.00128,0.04785,0.00183,0.0957,0.00214,0.14355c0.00031,0.05682,0.00031,0.11365,0.00031,0.17041V6.8587z"/>
</g>
<g>
</g>
<g>
</g>
<g>
</g>
<g>
</g>
<g>
</g>
<g>
</g>
</svg>
