<?xml version="1.0" encoding="utf-8"?>
<!-- Generator: Adobe Illustrator 21.1.0, SVG Export Plug-In . SVG Version: 6.00 Build 0)  -->
<svg version="1.1" id="Artwork" xmlns="http://www.w3.org/2000/svg" xmlns:xlink="http://www.w3.org/1999/xlink" x="0px" y="0px"
	 width="79.37009px" height="79.37008px" viewBox="0 0 79.37009 79.37008" enable-background="new 0 0 79.37009 79.37008"
	 xml:space="preserve">
<g>
	<path d="M54.92133,0c-0.12643,0-0.25277,0-0.37919,0H24.828c-0.12636,0-0.25282,0-0.37919,0
		c-0.82161,0-1.64312,0.00034-2.46469,0.00532c-0.79855,0.00486-1.59689,0.0141-2.39519,0.03566
		c-1.73949,0.047-3.49417,0.14951-5.21436,0.45872c-1.74511,0.31368-3.36935,0.82569-4.95487,1.63282
		C7.86124,2.92587,6.43524,3.96227,5.19872,5.19876C3.96247,6.43507,2.92614,7.86081,2.13289,9.419
		c-0.80764,1.5864-1.31986,3.21145-1.63354,4.95754c-0.30896,1.71957-0.41141,3.47358-0.45837,5.21241
		c-0.02154,0.7983-0.03078,1.59665-0.03564,2.39514c-0.00578,0.94798-0.00533,1.89587-0.00533,2.84388v29.71411
		c0,0.94803-0.00045,1.89592,0.00533,2.8439c0.00486,0.79849,0.0141,1.59684,0.03564,2.39514
		c0.04696,1.73883,0.14942,3.49284,0.45837,5.21241c0.31368,1.74609,0.8259,3.37114,1.63354,4.95753
		c0.79325,1.55817,1.82957,2.98394,3.06583,4.22031c1.23652,1.23643,2.66252,2.27283,4.22099,3.06617
		c1.58552,0.80713,3.20976,1.31913,4.95487,1.63282c1.72019,0.3092,3.47487,0.41172,5.21436,0.45872
		c0.7983,0.02157,1.59664,0.03081,2.39519,0.03567c0.82152,0.00498,1.64314,0.00532,2.46469,0.00532c0.12642,0,0.25276,0,0.37919,0
		h29.71413c0.12637,0,0.25283,0,0.37919,0c0.8216,0,1.6431-0.00034,2.46469-0.00532c0.79847-0.00486,1.59687-0.0141,2.39517-0.03567
		c1.73948-0.047,3.49416-0.14951,5.21434-0.45872c1.7451-0.31369,3.36935-0.82569,4.95489-1.63282
		c1.55843-0.79334,2.98449-1.82974,4.22094-3.06617c1.23628-1.23637,2.27261-2.66214,3.06585-4.22031
		c0.80764-1.5864,1.31984-3.21144,1.63354-4.95753c0.30897-1.71957,0.41138-3.47358,0.45839-5.21241
		c0.02156-0.7983,0.03078-1.59665,0.03564-2.39514c0.00573-0.94798,0.00532-1.89587,0.00532-2.8439V24.82797
		c0-0.94801,0.00041-1.8959-0.00532-2.84388c-0.00486-0.79849-0.01408-1.59684-0.03564-2.39514
		c-0.047-1.73882-0.14942-3.49283-0.45839-5.21241c-0.31371-1.74609-0.8259-3.37114-1.63354-4.95754
		c-0.79324-1.55819-1.82957-2.98394-3.06585-4.22024c-1.23645-1.2365-2.66251-2.27289-4.22094-3.06624
		c-1.58553-0.80713-3.20979-1.31914-4.95489-1.63282c-1.72018-0.30921-3.47486-0.41172-5.21434-0.45872
		c-0.7983-0.02156-1.5967-0.0308-2.39517-0.03566C56.5645,0.00034,55.74287,0,54.92133,0L54.92133,0z"/>
	<path fill="#FFFFFF" d="M54.92133,1.104l2.45795,0.00527c0.79079,0.00481,1.58151,0.01393,2.37211,0.03528
		c1.50819,0.04077,3.28744,0.12511,5.04884,0.44173c1.70971,0.30731,3.23051,0.80781,4.64934,1.53006
		c1.45724,0.74185,2.78322,1.70511,3.94114,2.86306c1.15791,1.15788,2.12105,2.48365,2.86268,3.94046
		c0.72269,1.41956,1.22343,2.9412,1.53081,4.65189c0.31631,1.76056,0.4006,3.53926,0.44137,5.04704
		c0.02135,0.79058,0.03042,1.58122,0.03526,2.37199c0.00537,0.8865,0.00532,1.7729,0.00529,2.65942v0.17777v29.71411v0.17776
		c0.00002,0.88655,0.00008,1.77295-0.00529,2.65942c-0.00484,0.79079-0.01391,1.58144-0.03526,2.37202
		c-0.04076,1.50778-0.12506,3.28648-0.44137,5.04704c-0.30738,1.71069-0.80812,3.23233-1.53081,4.65189
		c-0.74163,1.4568-1.7048,2.78259-2.86266,3.94053c-1.15797,1.15791-2.48396,2.12117-3.94116,2.86299
		c-1.41883,0.72225-2.93963,1.22276-4.64934,1.53006c-1.7614,0.31662-3.54065,0.40097-5.04889,0.44173
		c-0.79055,0.02135-1.58127,0.03046-2.37202,0.03528l-2.458,0.00527h-0.37919H24.828h-0.3792l-2.45796-0.00527
		c-0.79085-0.00481-1.58149-0.01393-2.37209-0.03528c-1.5082-0.04076-3.28749-0.12511-5.04886-0.44173
		c-1.70972-0.3073-3.23053-0.80781-4.64935-1.53006c-1.4571-0.74175-2.78309-1.70502-3.94114-2.86296
		c-1.15791-1.15797-2.12106-2.4838-2.86267-3.94056c-0.72276-1.41965-1.22349-2.9413-1.53081-4.65189
		c-0.31637-1.76087-0.40064-3.53942-0.44137-5.04696c-0.02132-0.7906-0.03043-1.5813-0.03525-2.37209
		c-0.00537-0.88284-0.00533-1.76559-0.00531-2.64845v-0.18874V24.82797v-0.18874c-0.00002-0.88284-0.00006-1.76558,0.00531-2.64843
		c0.00482-0.79079,0.01393-1.58149,0.03525-2.37206c0.04073-1.50756,0.125-3.28612,0.44141-5.04699
		c0.30728-1.7106,0.80801-3.23224,1.53077-4.65189C3.85834,8.46305,4.82148,7.13733,5.97934,5.9794
		c1.15807-1.158,2.48408-2.12129,3.9412-2.86306c1.41882-0.72226,2.93963-1.22276,4.64935-1.53006
		c1.76137-0.31662,3.54066-0.40097,5.04889-0.44173c0.79058-0.02135,1.58121-0.03047,2.37204-0.03528L24.4488,1.104h0.3792h29.71413
		H54.92133"/>
	<g>
		<g>
			<linearGradient id="SVGID_1_" gradientUnits="userSpaceOnUse" x1="39.6791" y1="64.48307" x2="39.6791" y2="14.87516">
				<stop  offset="0" style="stop-color:#FD3159"/>
				<stop  offset="1" style="stop-color:#FD5464"/>
			</linearGradient>
			<path fill-rule="evenodd" clip-rule="evenodd" fill="url(#SVGID_1_)" d="M14.87511,42.68384v15.04736l0.00007,2.05833
				c0,0.17915-0.00007,0.35847,0.00109,0.53762c0.00079,0.15087,0.00255,0.30185,0.00658,0.45279
				c0.00893,0.32877,0.02834,0.66048,0.08678,0.98571c0.05927,0.32986,0.15597,0.63693,0.3085,0.9366
				c0.15001,0.29461,0.34577,0.56431,0.57942,0.79803c0.23359,0.23362,0.50303,0.42957,0.7975,0.57949
				c0.29973,0.15266,0.60684,0.24953,0.93683,0.30883c0.32487,0.0585,0.65635,0.07775,0.98492,0.08668
				c0.15088,0.0041,0.30175,0.00579,0.45266,0.00678c0.17902,0.00102,0.35814,0.00096,0.53732,0.00096l2.05754,0.00006h15.05007
				c0.43255,0,0.57376-0.5815,0.18891-0.77891c-9.19414-4.71637-16.4929-12.01512-21.20926-21.2092
				c-0.07931-0.15464-0.22062-0.2244-0.36134-0.2244C15.0832,42.27057,14.87511,42.42505,14.87511,42.68384 M19.57666,14.87516
				c-0.17955,0-0.35903,0.00007-0.53855,0.00109c-0.15114,0.00086-0.30234,0.00271-0.45348,0.00678
				c-0.3294,0.00893-0.66177,0.02828-0.98746,0.08681c-0.33042,0.05953-0.63802,0.15627-0.93822,0.30896
				c-0.29517,0.15031-0.56523,0.3464-0.79938,0.58048c-0.23405,0.23408-0.43037,0.50395-0.58045,0.79879
				c-0.15299,0.30039-0.24996,0.60803-0.30939,0.93842c-0.0585,0.32559-0.07788,0.65764-0.08688,0.98677
				c-0.004,0.15104-0.00579,0.30215-0.00658,0.45325c-0.00109,0.1514-0.00116,0.30287-0.00116,0.45424v0.08407v6.19574
				c0,1.26444,0.24589,1.91903,1.18322,2.85649l34.6729,34.67277c0.9492,0.94923,1.59483,1.18325,2.85649,1.18325h6.19382
				c0.17942,0,0.35906,0,0.53854-0.00112c0.15121-0.00089,0.30231-0.00265,0.45352-0.00681
				c0.32949-0.00887,0.6617-0.02821,0.9874-0.08678c0.33052-0.05943,0.63806-0.15627,0.93829-0.30899
				c0.29517-0.15031,0.5652-0.34636,0.79922-0.58044c0.23428-0.23415,0.43047-0.50392,0.58064-0.79876
				c0.15302-0.30039,0.24992-0.60803,0.30939-0.93845c0.05851-0.32546,0.07792-0.65751,0.08675-0.98674
				c0.0041-0.15104,0.00588-0.30208,0.00674-0.45345c0.00099-0.152,0.00106-0.30433,0.00106-0.45659V53.5878
				c0-1.26464-0.24583-1.91917-1.18325-2.85659l-34.6728-34.67281c-0.9492-0.94917-1.59493-1.18318-2.85653-1.18325H19.57666
				 M42.68392,14.87516c-0.43265,0-0.57386,0.5815-0.18907,0.77891c9.19424,4.71633,16.49287,12.01505,21.20926,21.20919
				c0.19747,0.38499,0.77898,0.24368,0.77898-0.189V21.62697l-0.00017-2.05833c0-0.17912,0.00017-0.3584-0.00089-0.53758
				c-0.00086-0.15097-0.00265-0.30185-0.00681-0.45272c-0.00883-0.32893-0.02811-0.66058-0.08662-0.98574
				c-0.0593-0.32993-0.15604-0.63697-0.30859-0.93663c-0.14982-0.2947-0.34577-0.56424-0.57932-0.79793
				c-0.23372-0.23372-0.50299-0.42961-0.79753-0.57959c-0.29976-0.15269-0.60684-0.24949-0.9368-0.30876
				c-0.32486-0.05847-0.65638-0.07785-0.98495-0.08678c-0.15081-0.00394-0.30169-0.00579-0.45256-0.00665
				c-0.17915-0.00109-0.35833-0.00103-0.53738-0.00103l-2.05761-0.00007H42.68392"/>
		</g>
	</g>
</g>
<g>
</g>
<g>
</g>
<g>
</g>
<g>
</g>
<g>
</g>
<g>
</g>
</svg>
