<?xml version="1.0" encoding="UTF-8" standalone="no"?>
<svg width="1069px" height="1069px" viewBox="0 0 1069 1069" version="1.1" xmlns="http://www.w3.org/2000/svg" xmlns:xlink="http://www.w3.org/1999/xlink">
    <!-- Generator: Sketch 3.8.2 (29753) - http://www.bohemiancoding.com/sketch -->
    <title>icon</title>
    <desc>Created with Sketch.</desc>
    <defs>
        <linearGradient x1="50%" y1="0%" x2="50%" y2="100%" id="linearGradient-1">
            <stop stop-color="#FF5160" offset="0%"></stop>
            <stop stop-color="#FF2D54" offset="100%"></stop>
        </linearGradient>
        <path d="M36.2458416,494.010433 C36.246771,494.031512 36.246771,494.051674 36.2477005,494.072753 C36.246771,494.051674 36.246771,494.031512 36.2458416,494.012266 L36.2458416,494.010433 Z M624.45178,33.8516825 C623.740751,27.5033063 624.085577,21.1430161 624.258455,14.7854753 C624.083718,11.68323 623.909911,8.58098466 623.733316,5.47873935 C623.394067,4.89403255 623.054817,4.30657635 622.714639,3.71912015 C622.066812,3.11608398 621.417127,2.51121488 620.767442,1.90817872 C618.888095,1.10626893 616.931603,0.898230614 614.884025,0.898230614 C431.573315,0.922058791 248.260746,0.922058791 64.9500356,0.944970499 C63.160845,0.944970499 61.2099301,0.473905775 59.7032922,1.98699499 C59.0368768,2.5918641 58.3723203,3.19856613 57.7068343,3.80343523 C57.5181561,4.14711086 57.3304072,4.49078648 57.1417289,4.83262917 C56.9140138,5.68127885 56.6862986,6.52809559 56.4595129,7.37674527 C56.4483595,9.78797345 56.4381355,12.1964522 56.4279116,14.6076804 C56.4269821,14.951356 56.4269821,15.2950317 56.4269821,15.6405402 C56.428841,17.7475009 56.4306999,19.8544616 56.4344177,21.9595894 C56.8210688,24.4542162 56.8712591,26.9479265 56.410252,29.4398039 C56.4139698,37.9345489 56.4176876,46.4338763 56.4214054,54.9304542 C56.4697368,55.2283064 56.5180682,55.5270751 56.5645407,55.8240108 C56.281988,55.8313425 56.0105887,55.7809368 55.7494133,55.6773759 C54.1814318,55.7956003 52.6125207,55.9156576 51.0445391,56.0347985 C46.098008,56.0320491 41.1505474,56.0265503 36.2049458,56.0228844 L36.2690778,55.7561921 C31.3086049,55.8560872 26.3490615,55.9568987 21.3895181,56.0567938 C14.6296307,55.5536526 7.79631674,56.571849 1.0847607,55.0899197 C0.940696007,56.2895767 0.795701859,57.4864844 0.65256661,58.6861414 C0.610741375,61.127613 0.567057241,63.5690847 0.525232006,66.0105563 C0.601446879,80.9728184 0.741793778,95.9359968 0.744582127,110.898259 C0.76503002,236.28579 0.761312221,361.672406 0.761312221,487.059937 C0.761312221,488.43464 0.703686342,489.807509 0.672085053,491.180379 C0.674873402,491.822823 0.677661751,492.4671 0.68137955,493.110461 C0.701827442,494.031512 0.721345885,494.955312 0.740864328,495.879112 L0.905376919,495.836038 C1.58573407,496.020248 2.26702068,496.205375 2.94923673,496.389585 C9.69518241,496.244783 16.4401986,496.099064 23.1861443,495.956095 C23.8181701,496.165966 24.4501958,496.376754 25.0812922,496.588458 C28.813962,496.387752 32.5466319,496.188878 36.2783723,495.988172 C37.8166115,496.076153 39.3557801,496.241117 40.8940193,496.241117 C223.701897,496.256697 406.510705,496.262196 589.318583,496.25853 C592.720369,496.25853 596.122154,496.138472 599.52394,496.07432 C599.821364,496.042243 600.119717,496.010167 600.415282,495.977174 C600.731295,495.939599 601.047308,495.901107 601.363321,495.861699 C601.909837,495.45662 602.352256,494.814176 603.192478,495.080868 C605.371108,495.270577 606.625865,492.885926 608.818437,493.120542 C617.335914,487.711546 622.931201,480.422873 623.982408,470.208834 C624.038175,469.866991 624.094872,469.523316 624.150639,469.181473 C624.145062,371.826875 624.134838,274.469527 624.136697,177.114929 C624.138556,131.184285 624.161792,85.2508925 624.190605,39.320249 C624.192464,37.49831 624.361624,35.674538 624.45178,33.8516825 L624.45178,33.8516825 Z" id="path-2"></path>
        <filter x="-50%" y="-50%" width="200%" height="200%" filterUnits="objectBoundingBox" id="filter-3">
            <feOffset dx="0" dy="25" in="SourceAlpha" result="shadowOffsetOuter1"></feOffset>
            <feGaussianBlur stdDeviation="50" in="shadowOffsetOuter1" result="shadowBlurOuter1"></feGaussianBlur>
            <feColorMatrix values="0 0 0 0 0   0 0 0 0 0   0 0 0 0 0  0 0 0 0.249915082 0" type="matrix" in="shadowBlurOuter1"></feColorMatrix>
        </filter>
        <linearGradient x1="0%" y1="50%" x2="100%" y2="50%" id="linearGradient-4">
            <stop stop-color="#FFFFFF" offset="0%"></stop>
            <stop stop-color="#CCCCCC" stop-opacity="0.98" offset="100%"></stop>
        </linearGradient>
    </defs>
    <g id="Page-1" stroke="none" stroke-width="1" fill="none" fill-rule="evenodd">
        <g id="icon">
            <path d="M534.5,0 C239.304,0 0,239.304 0,534.5 L0,534.5 C0,829.695 239.304,1069 534.5,1069 L534.5,1069 C829.696,1069 1069,829.695 1069,534.5 L1069,534.5 C1069,239.304 829.696,0 534.5,0 L534.5,0 Z" id="Circle" fill="url(#linearGradient-1)"></path>
            <g id="Group-6" transform="translate(214.704912, 284.637082)" fill="black" fill-opacity="1">
                <g id="Fill-4">
                    <use filter="url(#filter-3)" xlink:href="#path-2"></use>
                </g>
            </g>
            <path d="M215.357386,343.324048 C215.315561,345.765519 215.271877,348.206991 215.230051,350.648463 L215.230051,350.648463 C215.307196,365.610725 215.446613,380.572987 215.449402,395.535249 L215.449402,395.535249 C215.469849,520.923697 215.467061,646.309395 215.467061,771.696927 L215.467061,771.696927 C215.467061,773.071629 215.408506,774.444499 215.376904,775.817369 L215.376904,775.817369 C215.380622,776.460729 215.383411,777.105007 215.386199,777.747451 L215.386199,777.747451 C215.406647,778.669418 215.427095,779.592302 215.445684,780.516102 L215.445684,780.516102 L215.610196,780.473028 C216.290553,780.658154 216.97277,780.842364 217.654056,781.026575 L217.654056,781.026575 C224.400002,780.881773 231.145018,780.736054 237.890964,780.593085 L237.890964,780.593085 C238.522989,780.80204 239.155015,781.013744 239.786112,781.224532 L239.786112,781.224532 C243.518781,781.024742 247.251451,780.826785 250.983192,780.625161 L250.983192,780.625161 L250.950661,778.649256 L250.950661,778.647423 C258.740379,777.195737 264.4472,773.08446 267.734663,765.880102 L267.734663,765.880102 C269.288703,763.538526 270.208858,760.971498 270.552754,758.201931 L270.552754,758.201931 C270.815789,756.086722 271.262854,753.967847 271.262854,751.849889 L271.262854,751.849889 C271.287949,614.719648 271.276796,477.589408 271.27029,340.461001 L271.27029,340.461001 C270.986807,340.468332 270.715408,340.417927 270.454233,340.314366 L270.454233,340.314366 C268.886251,340.43259 267.31734,340.552648 265.749359,340.672705 L265.749359,340.672705 C260.802827,340.668123 255.855367,340.66354 250.909765,340.659874 L250.909765,340.659874 L250.974827,340.393182 C246.013424,340.493994 241.053881,340.593889 236.094338,340.693784 L236.094338,340.693784 C233.537421,340.504075 230.969352,340.531569 228.401283,340.559063 L228.401283,340.559063 C224.181581,340.60397 219.96095,340.649793 215.78958,339.727826 L215.78958,339.727826 C215.644586,340.926567 215.501451,342.124391 215.357386,343.324048" id="Fill-7" fill="url(#linearGradient-4)"></path>
            <path d="M839.157157,318.489131 C838.445199,312.139838 838.790025,305.780464 838.962902,299.422007 C838.789095,296.320678 838.614359,293.218433 838.438693,290.116187 C838.098514,289.530564 837.759265,288.944024 837.420016,288.356568 C836.772189,287.753532 836.121575,287.148663 835.471889,286.545627 C833.593472,285.743717 831.636051,285.535679 829.588473,285.535679 C646.277763,285.55859 462.966123,285.55859 279.654483,285.582419 C277.866222,285.582419 275.915307,285.111354 274.408669,286.623527 C273.742254,287.229312 273.076768,287.836014 272.411282,288.440883 C272.222604,288.784559 272.034855,289.128235 271.847106,289.470077 C271.619391,290.318727 271.391676,291.165544 271.16489,292.013277 C271.153737,294.424505 271.142583,296.8339 271.132359,299.245129 C271.13143,299.588804 271.13143,299.93248 271.13143,300.277988 C271.133289,302.384949 271.135148,304.49191 271.138865,306.596121 C271.525516,309.091664 271.576636,311.585375 271.115629,314.077252 C271.119347,322.571997 271.123065,331.071324 271.126783,339.567902 C271.174184,339.864838 271.222516,340.163607 271.269918,340.461459 C271.277353,477.589866 271.288507,614.71919 271.262482,751.84943 C271.262482,753.967389 270.816346,756.086264 270.552383,758.202389 C270.208486,760.97104 269.288331,763.538068 267.735221,765.879644 C264.447757,773.084002 258.740007,777.196195 250.951219,778.647881 C250.961443,779.307738 250.972596,779.966679 250.983749,780.62562 C252.521989,780.713601 254.060228,780.877648 255.598467,780.877648 C438.406345,780.894145 621.216082,780.899644 804.02303,780.895978 C807.424816,780.895978 810.827532,780.775921 814.229317,780.711768 C814.526741,780.678775 814.824165,780.646698 815.12066,780.614622 C815.436672,780.577047 815.751756,780.537639 816.067769,780.498231 C816.614285,780.094068 817.057633,779.451624 817.897855,779.718316 C820.076485,779.908025 821.330313,777.523374 823.523814,777.75799 C832.041291,772.348994 837.635648,765.059405 838.686856,754.846282 C838.743552,754.504439 838.799319,754.160764 838.856016,753.818921 C838.850439,656.463406 838.839286,559.106975 838.841144,461.751461 C838.843003,415.820817 838.867169,369.888341 838.895982,323.957697 C838.897841,322.135758 839.066071,320.31107 839.157157,318.489131" id="Fill-9" fill="#FDFDFD"></path>
            <g id="Group-33" transform="translate(298.355382, 314.880537)">
                <path d="M280.123768,224.581298 C280.05127,217.589561 279.874675,210.595992 279.954608,203.606088 C279.98435,200.90159 279.185023,199.865064 276.295364,199.892558 C263.184547,200.013532 250.072801,200.009866 236.961984,199.895307 C234.157834,199.870563 233.171688,200.733876 233.243256,203.536436 C233.407768,210.225738 233.364084,216.922373 233.243256,223.610758 C233.21909,224.951552 234.399491,227.280298 231.354614,227.240889 C221.635359,218.329151 210.059063,213.857702 196.869243,213.626752 C193.29458,213.564433 190.976532,213.1007 189.509861,209.228621 C186.733595,201.909705 181.632775,195.93983 174.897983,191.946777 C155.505015,180.451515 132.954707,186.424139 121.709296,205.662643 C118.681149,210.845271 118.601216,210.968078 113.449277,207.741193 C94.2710124,195.729042 67.8383934,197.889158 51.1724314,210.902092 C45.1440209,215.60999 39.8117681,220.733048 36.1376536,227.415018 C34.6849238,230.057197 33.1922276,230.991078 29.8703745,229.605378 C24.8801593,227.525911 19.5915907,226.965949 13.9693496,227.919993 C8.97913438,228.765893 5.41097712,232.006525 0.981220012,233.658001 C0.941253676,202.514574 0.933818079,171.37023 0.817636871,140.228636 C0.804624576,136.942181 1.87442114,135.304452 5.35056289,135.633464 C6.11735886,135.706782 6.89809658,135.635297 7.67232815,135.635297 C174.425822,135.635297 341.182104,135.635297 507.936528,135.63713 C509.020266,135.63713 510.104004,135.662791 511.188672,135.676538 C511.711023,136.012882 512.234303,136.351975 512.756654,136.690152 C512.725982,170.486755 512.69531,204.285191 512.667427,238.084543 C510.358674,238.168858 509.155036,236.332255 507.610291,235.158259 C492.093129,223.356897 470.411856,225.064277 457.235049,239.348353 C454.753418,242.037271 452.890801,242.051018 450.285553,239.719522 C444.29525,234.354517 437.071568,231.809484 429.056923,231.954286 C420.840588,232.102754 413.452393,234.963052 407.189761,240.010959 C406.087433,239.287866 406.231498,238.48229 406.165507,237.750032 C403.325109,206.271178 370.718156,186.705495 341.118902,198.966925 C330.241552,203.472283 321.802149,210.916756 317.067533,221.890547 C315.624098,225.242072 314.006855,227.180403 309.686773,225.441862 C304.848988,223.4962 299.674741,222.69429 294.307169,222.587063 C289.382016,222.487168 284.919728,224.472239 280.123768,224.581298" id="Fill-11" fill="#ABE0FA"></path>
                <path d="M280.123768,224.581298 C284.919728,224.472239 289.382016,222.487168 294.307169,222.587063 C299.674741,222.69429 304.848988,223.4962 309.686773,225.441862 C314.006855,227.180403 315.624098,225.242072 317.067533,221.890547 C321.802149,210.916756 330.241552,203.472283 341.118902,198.966925 C370.718156,186.705495 403.325109,206.271178 406.165507,237.750032 C406.231498,238.48229 406.087433,239.287866 407.189761,240.010959 C413.452393,234.963052 420.840588,232.102754 429.056923,231.954286 C437.071568,231.809484 444.29525,234.354517 450.285553,239.719522 C452.890801,242.051018 454.753418,242.037271 457.235049,239.348353 C470.411856,225.064277 492.093129,223.356897 507.610291,235.158259 C509.155036,236.332255 510.358674,238.168858 512.667427,238.084543 C511.930373,254.531484 511.970339,270.983007 512.545669,287.43453 C512.593071,288.791819 512.280776,290.161023 512.135781,291.524728 C495.115699,291.549472 478.092829,291.46699 461.074605,291.68236 C457.374466,291.7291 456.69225,290.339734 456.782407,287.137594 C456.968297,280.582096 456.695968,274.014684 456.854904,267.458269 C456.919036,264.823423 456.025835,263.993103 453.411293,264.043508 C446.451574,264.180979 439.48256,264.227719 432.5247,264.05359 C429.596004,263.980272 428.436051,265.084616 428.940742,267.768036 C429.875768,272.73896 427.401573,273.413481 423.019218,273.360325 C404.762968,273.135791 386.498352,273.178865 368.240243,273.332831 C364.692534,273.363991 363.38201,272.524506 363.488896,268.79723 C363.754719,259.496909 363.429412,250.180092 363.656197,240.877022 C363.741707,237.388943 362.565023,236.461477 359.148366,236.534795 C349.558305,236.74375 339.960808,236.690594 330.368887,236.557707 C327.552655,236.518298 326.552567,237.415521 326.619487,240.215332 C326.779352,246.925713 326.538625,253.645259 326.759834,260.351974 C326.861144,263.44872 325.743016,264.25063 322.760412,264.161733 C316.267277,263.964692 309.746258,264.383518 303.270782,264.002267 C298.961853,263.749322 298.080735,265.337562 298.267554,269.200476 C298.57985,275.593759 298.273131,282.014536 298.394889,288.42065 C298.440432,290.762226 297.710814,291.909645 295.245914,291.587048 C290.206438,290.92719 284.9504,293.013989 280.064283,290.427715 C280.316164,290.172937 280.32174,289.913577 280.078224,289.646884 C280.093096,267.957745 280.108896,246.270438 280.123768,224.581298" id="Fill-13" fill="#CAEBF9"></path>
                <path d="M0.981220012,233.658276 C5.41097712,232.005883 8.97913438,228.766168 13.9693496,227.919351 C19.5915907,226.965307 24.8801593,227.526186 29.8703745,229.605653 C33.1922276,230.991353 34.6849238,230.056555 36.1376536,227.415293 C39.8117681,220.732406 45.1440209,215.610265 51.1724314,210.902367 C67.8383934,197.889433 94.2710124,195.728401 113.449277,207.741468 C118.601216,210.968353 118.681149,210.844629 121.709296,205.662918 C132.954707,186.424414 155.505015,180.450874 174.897983,191.946136 C181.632775,195.940105 186.734524,201.909063 189.509861,209.228896 C190.976532,213.100058 193.29458,213.563791 196.869243,213.627027 C210.059063,213.857977 221.635359,218.32851 231.354614,227.241164 C221.301687,227.30715 211.2469,227.539933 201.19862,227.35389 C197.419477,227.284238 196.069916,228.24928 196.18145,232.14427 C196.446344,241.596724 196.099659,251.065675 196.357116,260.519046 C196.464003,264.406705 194.262137,264.136347 191.675478,264.111602 C189.157599,264.089607 186.624849,264.56617 186.912049,260.600612 C187.186237,256.806433 186.84327,252.971929 187.013359,249.16492 C187.12954,246.56215 186.151759,245.674092 183.540935,245.728164 C177.200229,245.857386 170.833499,245.459638 164.51603,245.874799 C159.828815,246.182732 158.680015,244.484516 159.017406,240.193611 C159.388256,235.493045 159.008111,230.738408 159.117786,226.011264 C159.171694,223.672437 158.340766,222.789878 155.906538,222.812789 C145.540385,222.908102 135.171445,222.955759 124.806222,222.799959 C121.425814,222.75047 121.581961,224.674137 121.585679,226.924066 C121.608915,246.607057 121.420237,266.290964 121.734391,285.968455 C121.808747,290.764334 120.365312,292.249929 115.776619,291.63223 C111.710276,291.086014 106.234888,293.436756 103.880592,290.556296 C101.882276,288.114824 103.2086,282.977103 103.177929,279.032623 C103.12495,272.472543 102.920471,265.899632 103.256002,259.355131 C103.452116,255.546289 101.996598,254.862604 98.5102323,254.872685 C66.0157426,254.98541 33.5212528,254.935921 1.02676305,254.934088 C1.0109624,247.842456 0.996091207,240.749908 0.981220012,233.658276" id="Fill-15" fill="#CAEBF9"></path>
                <path d="M512.13764,291.524636 C513.078243,296.216038 512.505702,300.957845 512.54288,305.673074 C512.634896,318.039898 512.475031,330.406722 512.634896,342.771712 C512.674862,345.947275 511.737977,347.348555 508.457949,346.877491 C507.851948,346.792259 507.221781,346.867409 506.602768,346.867409 C340.149486,346.865577 173.696204,346.871075 7.24571076,346.850913 C-0.186168768,346.850913 0.803695126,347.63541 0.79254173,340.568523 C0.752575394,313.848888 0.770234938,287.130171 0.786965032,260.413286 C0.787894482,258.585848 0.943112576,256.759326 1.02676305,254.933721 C33.5212528,254.935554 66.0157426,254.98596 98.5102323,254.873235 C101.996598,254.862237 103.452116,255.545922 103.256002,259.354765 C102.920471,265.899265 103.12495,272.472176 103.177929,279.032256 C103.2086,282.977653 101.882276,288.114458 103.880592,290.555929 C106.234888,293.436389 111.710276,291.085648 115.776619,291.631863 C120.365312,292.249563 121.808747,290.763967 121.734391,285.969005 C121.420237,266.291514 121.608915,246.60669 121.585679,226.924616 C121.581961,224.674687 121.425814,222.750103 124.806222,222.800509 C135.171445,222.956308 145.540385,222.907736 155.906538,222.812423 C158.340766,222.789511 159.171694,223.67207 159.117786,226.011814 C159.008111,230.738957 159.388256,235.492679 159.017406,240.193245 C158.680015,244.48415 159.828815,246.182365 164.51603,245.874432 C170.833499,245.459272 177.200229,245.857019 183.540935,245.727797 C186.151759,245.674642 187.12954,246.561783 187.013359,249.164553 C186.84327,252.972479 187.186237,256.806066 186.912049,260.601162 C186.624849,264.565804 189.157599,264.08924 191.675478,264.111235 C194.262137,264.13598 196.464003,264.406338 196.357116,260.51868 C196.099659,251.066225 196.446344,241.596358 196.18145,232.143903 C196.069916,228.248913 197.419477,227.283872 201.19862,227.353523 C211.2469,227.540483 221.301687,227.3077 231.354614,227.240798 C234.399491,227.280206 233.21909,224.95146 233.243256,223.610667 C233.364084,216.922281 233.407768,210.225647 233.243256,203.536344 C233.171688,200.733784 234.157834,199.870471 236.962913,199.896132 C250.072801,200.010691 263.184547,200.01344 276.295364,199.892466 C279.185023,199.864972 279.98435,200.901498 279.954608,203.605996 C279.874675,210.5959 280.05127,217.58947 280.123768,224.581207 C280.108896,246.270346 280.093096,267.957653 280.078224,289.646793 C279.923936,289.90432 279.918359,290.164597 280.064283,290.427624 C284.9504,293.013897 290.206438,290.927099 295.245914,291.586956 C297.710814,291.909553 298.440432,290.762135 298.394889,288.420558 C298.273131,282.014444 298.57985,275.593667 298.267554,269.200384 C298.080735,265.33747 298.961853,263.74923 303.270782,264.002176 C309.746258,264.383426 316.267277,263.9646 322.760412,264.161641 C325.743016,264.250539 326.861144,263.448629 326.759834,260.351882 C326.538625,253.645167 326.779352,246.925621 326.619487,240.21524 C326.552567,237.415429 327.552655,236.518207 330.368887,236.557615 C339.960808,236.690503 349.558305,236.744574 359.148366,236.534703 C362.565023,236.461386 363.741707,237.388852 363.656197,240.87693 C363.429412,250.18 363.754719,259.496817 363.488896,268.797138 C363.38201,272.524415 364.692534,273.3639 368.240243,273.33274 C386.498352,273.178773 404.762968,273.136616 423.019218,273.360234 C427.401573,273.413389 429.875768,272.738868 428.940742,267.767944 C428.436051,265.084525 429.596004,263.98018 432.5247,264.053498 C439.48256,264.227627 446.451574,264.180887 453.411293,264.043417 C456.025835,263.993011 456.919036,264.823331 456.854904,267.458178 C456.695968,274.015509 456.968297,280.582921 456.782407,287.137502 C456.69225,290.339643 457.374466,291.729009 461.074605,291.682269 C478.092829,291.467815 495.115699,291.549381 512.13764,291.524636" id="Fill-17" fill="#5F5F5F"></path>
                <path d="M256.941992,374.164327 C337.4881,374.164327 418.034208,374.164327 498.579386,374.167993 C501.051722,374.167993 503.545436,373.993864 505.954569,374.774695 C510.426152,376.220882 512.201401,379.482593 512.195824,383.892639 C512.190247,388.356756 509.626825,391.053006 505.535388,392.144519 C503.037027,392.812625 500.324893,392.907021 497.709421,392.907021 C337.238078,392.94093 176.765805,392.94093 16.2953904,392.910687 C13.6762012,392.910687 11.021693,392.696233 8.44618795,392.245331 C3.80823411,391.432423 0.997578326,388.104727 0.896268313,383.701097 C0.795887749,379.376283 3.53218756,375.664586 7.92383723,374.663802 C10.0030161,374.190905 12.2216125,374.182657 14.3760768,374.182657 C95.2335505,374.158828 176.087306,374.162494 256.941992,374.164327" id="Fill-19" fill="#BFBFBF"></path>
                <path d="M256.684255,420.411977 C338.16539,420.410144 419.644665,420.406478 501.123941,420.415643 C508.648765,420.417476 512.351693,423.517888 512.215993,429.585825 C512.113753,434.062773 509.209223,437.41888 504.667932,438.075071 C502.839705,438.339014 500.960357,438.31152 499.105176,438.31152 C337.384652,438.322518 175.664128,438.322518 13.9445333,438.313353 C12.0893518,438.31152 10.2053573,438.356427 8.38456543,438.070489 C3.78750739,437.350145 0.776090471,433.607288 0.896918927,429.013032 C1.01588848,424.498509 4.34331829,420.92245 8.99614331,420.510039 C11.1487487,420.318497 13.3301671,420.415643 15.4985732,420.415643 C95.8941103,420.411977 176.288718,420.411977 256.684255,420.411977" id="Fill-21" fill="#BFBFBF"></path>
                <path d="M215.991741,31.2906117 C221.949513,31.2906117 226.897903,31.2713659 231.847222,31.3034423 C233.522091,31.3135234 234.65509,31.0578288 235.224843,29.083756 C237.349564,21.7089353 240.645393,14.8519192 246.262057,7.85834938 C232.836157,12.2647291 223.434774,19.7110343 215.991741,31.2906117 M216.049366,84.6144053 C223.289779,95.908961 232.587064,103.405672 245.443212,107.63334 C243.033149,103.52298 241.15752,100.0404 239.004914,96.7356155 C236.477741,92.8516227 237.462028,86.3749409 232.967209,84.7106344 C228.635974,83.1049819 223.218212,84.3495459 218.277257,84.3522953 C217.829263,84.3541283 217.380338,84.4549398 216.049366,84.6144053 M307.41148,84.3330495 C301.354257,84.3330495 296.166069,84.3596271 290.97974,84.3165531 C289.528869,84.304639 288.706306,84.8288589 288.315937,86.2448024 C286.252559,93.7360146 282.714144,100.55179 277.367949,107.964185 C290.751095,103.251705 300.204528,95.9602832 307.41148,84.3330495 M258.212921,19.618471 C258.212921,15.8756144 258.256605,12.8375218 258.186897,9.80217871 C258.16366,8.80139529 258.748284,7.45693625 257.720313,6.86123183 C256.466485,6.1326395 255.415278,7.33321302 254.485828,7.99032082 C248.068907,12.5295885 244.747984,19.1978121 241.963353,26.1712196 C239.934364,31.2493707 240.021732,31.4161679 245.518498,31.2438719 C249.609935,31.1173992 254.826936,33.0428992 257.483303,30.3594799 C259.931474,27.882266 257.871813,22.8224443 258.212921,19.618471 M273.97174,31.3281869 C276.131781,31.3281869 278.289963,31.3153564 280.450934,31.3318528 C281.805142,31.3410175 283.165856,31.1577238 282.55242,29.3825247 C279.580969,20.8153787 275.977493,12.6322329 267.886633,7.36712235 C265.717298,5.95484465 265.29068,7.04177609 265.305552,9.02318063 C265.338082,13.5844435 265.296257,18.1466229 265.294398,22.7097187 C265.29068,31.3245211 265.294398,31.3245211 273.97174,31.3281869 M258.211062,95.8548894 C257.626438,92.797551 260.129446,87.4151325 257.289048,85.0579759 C254.893856,83.0710726 249.636889,84.4347775 245.646762,84.3312166 C244.566741,84.304639 243.483003,84.3687918 242.402982,84.3293836 C240.995796,84.2771449 240.309862,84.8719329 240.780163,86.2319719 C243.695847,94.6717288 247.257498,102.72107 255.028627,108.084243 C257.125465,109.53043 258.357915,109.437867 258.238016,106.426352 C258.112541,103.233376 258.211062,100.031236 258.211062,95.8548894 M274.258011,84.2936414 C272.715124,84.2936414 271.147143,84.4760186 269.638646,84.2560662 C266.201541,83.7565909 265.050882,84.969995 265.220042,88.4516582 C265.506313,94.3674613 265.365036,100.308925 265.265585,106.236643 C265.210748,109.473609 266.450633,109.586334 268.77054,107.984348 C274.152983,104.268069 277.340995,98.9360559 279.948102,93.1971312 C283.992137,84.3009731 283.968901,84.2899755 274.258011,84.2936414 M276.427346,61.4176753 C265.208889,61.4176753 265.208889,61.4176753 265.388273,72.5976725 C265.395708,73.0522408 265.450546,73.5141408 265.395708,73.9641268 C265.117803,76.2461329 265.917129,77.2588304 268.448021,77.1681001 C273.058091,76.997637 277.680244,77.1387731 282.296821,77.1030308 C283.320145,77.0956991 284.78031,77.400883 285.096323,76.1434885 C286.248841,71.5648127 287.488727,66.6287142 286.326915,62.266325 C285.75995,60.1401184 280.773453,61.7760144 277.811297,61.425007 C277.354937,61.3709354 276.889283,61.4176753 276.427346,61.4176753 M248.017788,61.4176753 C235.506466,61.4176753 235.644954,61.3947636 237.666507,73.5792101 C238.165621,76.5916415 239.380412,77.3110691 242.147384,77.169933 C245.684869,76.9884723 249.276263,76.8152598 252.779358,77.2038423 C257.346674,77.7115658 258.46852,76.0472593 258.325385,71.6793712 C257.984276,61.425007 258.218498,61.4176753 248.017788,61.4176753 M247.463836,54.2096518 C258.241734,54.2078189 258.241734,54.2078189 258.212921,43.541044 C258.211062,42.6282415 258.152507,41.7136061 258.21478,40.8044695 C258.340256,38.967867 257.382923,38.4665588 255.685747,38.488554 C250.751299,38.5453751 245.815921,38.4931364 240.881473,38.5270457 C239.858149,38.5325445 238.512306,38.2603534 238.226036,39.6946264 C237.336552,44.1642424 235.537138,49.0939256 237.165533,53.0961428 C238.300391,55.8849559 243.307337,53.7101766 246.539963,54.2023201 C246.841104,54.24906 247.155258,54.2096518 247.463836,54.2096518 M276.429205,54.2114848 C278.439605,54.2114848 280.481606,54.4241054 282.451109,54.1418332 C283.944735,53.9264631 286.971023,55.5302827 286.593667,52.3547199 C286.035997,47.677982 287.513822,42.4174538 283.380559,38.5774515 C282.968813,38.1943677 281.883216,38.5096328 281.109914,38.5077999 C277.55291,38.5059669 273.969881,38.7689933 270.444479,38.4363153 C266.475729,38.0623963 265.157769,39.1804876 265.25815,43.3495021 C265.517466,54.2096518 265.29068,54.2151506 276.429205,54.2114848 M220.07946,54.2096518 L224.716485,54.2096518 C231.035813,54.205986 231.129687,54.2096518 231.440123,48.0592328 C231.59813,44.9606534 234.076043,40.920861 231.725465,39.0805926 C229.701123,37.4960188 225.5186,38.5242963 222.288762,38.5151316 C211.17905,38.4830552 210.297003,39.4206023 209.03388,50.4667952 C208.670466,53.6350262 209.674271,54.4900911 212.66617,54.2453941 C215.120846,54.0446875 217.607124,54.204153 220.07946,54.2096518 M303.468755,53.9429595 C316.21058,54.2096518 316.128789,54.2343965 312.400766,42.2341601 C311.555896,39.5204974 310.466581,38.1870359 307.363149,38.4344824 C303.674163,38.7277523 299.943352,38.5023011 296.23113,38.504134 C290.52338,38.5077999 290.38768,38.5343774 291.490937,44.1715742 C292.126681,47.4167885 290.410916,52.0559512 293.034753,53.6066157 C295.644647,55.1471989 299.921975,53.9429595 303.468755,53.9429595 M219.882417,61.6073842 C207.152674,61.4176753 207.236325,61.3929306 210.889062,73.3299307 C211.729284,76.0756698 212.858566,77.4036324 215.962928,77.1891788 C219.810849,76.9243195 223.726621,76.8060951 227.550377,77.2093411 C232.224579,77.6996517 233.226526,75.7356601 232.043336,71.8461684 C231.024659,68.4955602 232.973715,63.6749368 230.308983,61.9510598 C227.827353,60.3435744 223.434774,61.6073842 219.882417,61.6073842 M303.371163,61.4176753 C301.51784,61.4176753 299.622692,61.65779 297.813983,61.3709354 C293.195548,60.6386772 291.235338,62.3414754 291.850634,66.9705569 C292.288405,70.2496806 289.265834,74.6459792 291.647084,76.4193454 C293.953049,78.1377236 298.440432,77.0947826 301.969552,77.1103626 C312.342211,77.1571024 312.342211,77.126859 314.057975,67.0218791 C315.008802,61.4286729 315.008802,61.42684 309.399573,61.4195082 C307.390103,61.4158423 305.380633,61.4176753 303.371163,61.4176753 M279.287263,8.69966731 C278.910836,8.62726631 278.331789,8.37707045 278.197948,8.52370539 C277.809438,8.94253141 278.246279,9.1918108 278.626424,9.36868919 C282.716003,15.4998623 286.174485,21.9288877 288.174661,29.040682 C288.538075,30.3329023 289.035331,31.2924447 290.603313,31.2851129 C295.913258,31.2677 301.223204,31.2777812 307.420775,31.2777812 C300.095782,20.0996169 291.210243,12.5653307 279.287263,8.69966731 M261.702075,115.49114 C229.62119,115.481975 203.918189,90.0215684 203.219243,58.9349626 C202.552828,29.4036034 226.499169,0.335060823 261.934438,0.168263586 C293.936319,0.0161298427 320.43307,26.4470766 320.229521,58.0074966 C320.025042,89.9858262 294.045994,115.500305 261.702075,115.49114" id="Fill-23" fill="#5F5F5F"></path>
                <path d="M86.8009325,38.5023927 C60.8051548,38.5023927 34.8093771,38.5042256 8.8154583,38.4987268 C7.42593105,38.4987268 6.00573196,38.5903737 4.6515238,38.3520919 C2.95434871,38.0551562 1.97749711,36.8664967 1.88455214,35.1426198 C1.79067773,33.413244 2.59651059,32.1155249 4.32900476,31.7397729 C5.81147698,31.4180925 7.36923462,31.3062833 8.89353207,31.3062833 C60.8832286,31.2852046 112.873855,31.2888704 164.862622,31.2907034 C165.944501,31.2907034 167.037534,31.2228847 168.10826,31.3356103 C170.43932,31.5803074 171.928298,32.9394299 171.804681,35.223269 C171.692218,37.2798239 170.219969,38.4464881 168.033904,38.4913951 C166.950166,38.5115574 165.866427,38.5023927 164.784548,38.5023927 L86.8009325,38.5023927 Z" id="Fill-25" fill="#5F5F5F"></path>
                <path d="M86.9280812,84.3276423 C60.9267268,84.3276423 34.9263019,84.3276423 8.92587692,84.3258094 C7.68877941,84.3258094 6.44517576,84.3743822 5.21365495,84.2809024 C3.2683168,84.1342675 2.05352609,83.0821619 1.8815779,81.1328337 C1.70870027,79.1651762 2.81102757,77.85371 4.63089001,77.4257193 C6.10406773,77.0802107 7.69249721,77.1370318 9.22980696,77.1370318 C60.9220796,77.1251177 112.612493,77.115953 164.303836,77.1516953 C167.402622,77.1535282 171.788695,76.2425587 171.710621,80.9733682 C171.636265,85.4860583 167.347784,84.2900671 164.463702,84.2955659 C138.618495,84.3487211 112.774218,84.3276423 86.9280812,84.3276423" id="Fill-27" fill="#5F5F5F"></path>
                <path d="M430.86526,38.5042256 C406.425381,38.5023927 381.983643,38.5060586 357.541906,38.4968939 C356.153308,38.4968939 354.726603,38.6022878 353.385407,38.3310131 C351.686373,37.9873375 350.818267,36.6318808 350.721604,34.9959849 C350.633306,33.4902274 351.47167,32.2245846 352.902093,31.8167562 C354.349246,31.4015961 355.932099,31.3081163 357.453608,31.3081163 C406.490443,31.2907034 455.528207,31.2998681 504.565972,31.3191139 C505.945275,31.3209468 507.37198,31.301701 508.697375,31.6160496 C510.590664,32.0642027 511.478289,33.4370722 511.297046,35.3864004 C511.131604,37.148769 510.082255,38.1907935 508.359985,38.4024977 C506.985329,38.5683784 505.580931,38.5023927 504.190474,38.5023927 C479.748736,38.5078915 455.306998,38.5060586 430.86526,38.5042256" id="Fill-29" fill="#5F5F5F"></path>
                <path d="M430.72733,84.3276423 C406.127586,84.3276423 381.525982,84.3313082 356.927168,84.3148118 C355.543217,84.3148118 354.074687,84.4082915 352.800411,83.9931314 C351.422967,83.5449784 350.619922,82.2069346 350.711008,80.7387523 C350.811389,79.1065222 351.691578,77.7583973 353.419425,77.4394663 C354.922345,77.1626929 356.489397,77.1388647 358.026707,77.1370318 C406.763329,77.1251177 455.500881,77.1287836 504.237504,77.1297 C505.010806,77.1297 505.784108,77.1141201 506.55741,77.1333659 C509.117115,77.1966022 511.324558,77.8821205 511.279015,80.9137978 C511.231613,84.0462866 508.930295,84.3487211 506.384533,84.3459717 C485.654087,84.3148118 464.920854,84.3276423 444.18762,84.3276423 C439.702096,84.3258094 435.214713,84.3276423 430.72733,84.3276423" id="Fill-31" fill="#5F5F5F"></path>
            </g>
        </g>
    </g>
</svg>